<svg width="26" height="25" viewBox="0 0 26 25" fill="none" xmlns="http://www.w3.org/2000/svg">
<path fill-rule="evenodd" clip-rule="evenodd" d="M7.71048 0.27005C7.41806 0.41303 6.94217 0.777028 6.65297 1.07901C6.36377 1.38099 5.8955 2.07749 5.61229 2.62689C5.32909 3.17641 5.00749 3.88731 4.8976 4.20682C4.7304 4.6928 4.72348 4.80309 4.85563 4.88167C4.94246 4.9333 5.0701 4.97627 5.13941 4.97725C5.20859 4.97811 5.46585 4.55632 5.71111 4.03981C5.95626 3.52331 6.34567 2.91448 6.57629 2.68686C6.93098 2.33682 7.06959 2.27296 7.47444 2.27296C7.86327 2.27296 8.04062 2.3471 8.41861 2.66759C8.69247 2.89987 9.04509 3.37849 9.27571 3.83113C9.49134 4.25401 9.77189 4.98969 9.89931 5.46593C10.0267 5.94217 10.2096 6.75968 10.3058 7.28268C10.4019 7.80557 10.5432 9.14672 10.6197 10.263C10.6962 11.3792 10.7234 12.4247 10.6802 12.5863C10.6102 12.8481 10.5485 12.8801 10.1138 12.8797C9.84546 12.8795 9.13295 12.805 8.53046 12.7143C7.92796 12.6235 6.94321 12.4243 6.34209 12.2716C5.74098 12.1189 4.93381 11.8598 4.54844 11.6958C4.16296 11.5317 3.65743 11.2136 3.42485 10.9888C3.19227 10.7641 2.96961 10.4845 2.93017 10.3677C2.89062 10.251 2.88947 9.99973 2.9274 9.80956C2.96546 9.61939 3.14292 9.31341 3.32177 9.12952C3.50061 8.94573 3.86361 8.66074 4.12848 8.49622C4.39323 8.33181 4.6099 8.13655 4.6099 8.06252C4.6099 7.98838 4.54267 7.87538 4.46046 7.81131C4.3501 7.72537 4.08016 7.78912 3.4297 8.05451C2.94493 8.25237 2.30196 8.54969 2.00088 8.7153C1.69981 8.8809 1.24053 9.20063 0.980386 9.42576C0.72013 9.65089 0.392533 10.0506 0.252431 10.3142C0.103334 10.5944 -0.00148316 10.9905 1.58739e-05 11.2685C0.0013996 11.5298 0.096992 11.9387 0.212303 12.1771C0.327728 12.4155 0.721168 12.867 1.0867 13.1807C1.47126 13.5106 2.1471 13.9289 2.69056 14.1737C3.20715 14.4061 4.04488 14.7223 4.55224 14.8761C5.05961 15.0299 6.07146 15.2738 6.8008 15.418C7.53014 15.5623 8.57577 15.7141 9.12431 15.7554C9.67295 15.7968 10.182 15.8655 10.2556 15.9081C10.3557 15.9662 10.3411 16.2283 10.1975 16.9473C10.092 17.4762 9.90127 18.2263 9.77373 18.6145C9.64632 19.0026 9.4112 19.5637 9.25126 19.8614C9.09133 20.159 8.86001 20.5232 8.73709 20.6708C8.61406 20.8183 8.37467 21.025 8.20494 21.1301C8.03508 21.2351 7.70945 21.3215 7.48113 21.3218C7.20554 21.3223 6.91138 21.2175 6.60581 21.0096C6.3527 20.8375 6.00539 20.4722 5.83415 20.1979C5.6628 19.9235 5.48292 19.699 5.43425 19.699C5.38559 19.699 5.25252 19.763 5.1386 19.8412C4.94199 19.9762 4.95018 20.0261 5.29888 20.8121C5.50102 21.2679 5.8609 21.9223 6.09867 22.2664C6.33656 22.6105 6.74626 23.0735 7.00928 23.2954C7.2723 23.5173 7.67658 23.773 7.90778 23.8636C8.13886 23.9543 8.53092 24.0285 8.77883 24.0285C9.02687 24.0285 9.40855 23.9583 9.62706 23.8726C9.84557 23.7869 10.2088 23.5799 10.4342 23.4126C10.6597 23.2454 11.0326 22.8528 11.2631 22.5402C11.4936 22.2277 11.7125 21.9753 11.7495 21.9795C11.7865 21.9837 12.0503 22.2865 12.3357 22.6524C12.6324 23.0329 13.0895 23.4536 13.403 23.635C13.7357 23.8274 14.1693 23.9717 14.5055 24.002C14.9138 24.039 15.2179 23.9882 15.6613 23.8091C16.0387 23.6567 16.4566 23.3641 16.7821 23.0242C17.0676 22.7263 17.4789 22.1839 17.6963 21.8191C17.9136 21.4543 18.2986 20.5724 18.5519 19.8592C18.8051 19.146 19.1203 18.0268 19.2524 17.3719C19.3844 16.7171 19.5296 15.9883 19.5751 15.7524C19.6478 15.376 19.7075 15.3118 20.0615 15.2283C20.2835 15.176 20.9288 14.9876 21.4955 14.8095C22.0623 14.6315 22.9184 14.3002 23.3981 14.0734C23.8778 13.8466 24.5139 13.4591 24.8116 13.2125C25.1093 12.9658 25.5115 12.4893 25.7053 12.1534C25.9457 11.7369 26 11.4987 26 11.2025C26 10.9417 25.9423 10.7695 25.9423 10.7695C25.8685 10.5623 25.8847 10.553 25.7117 10.2824C25.5388 10.066 25.1781 9.61376 24.8598 9.34523C24.5268 9.06425 23.7406 8.60976 23.0073 8.27456C22.3067 7.95418 21.5096 7.64624 21.2358 7.59007C20.781 7.49688 20.73 7.50824 20.6439 7.72169C20.5922 7.85027 20.5728 7.99195 20.6007 8.03654C20.6287 8.08114 20.7162 8.11772 20.7951 8.11772C20.874 8.11772 21.3517 8.3053 21.8567 8.53443C22.4016 8.78186 22.9264 9.11328 23.1478 9.34999C23.3567 9.57339 23.5208 9.86855 23.5208 10.0209C23.5208 10.1707 23.443 10.4344 23.348 10.6069C23.253 10.7795 23.0064 11.0396 22.8002 11.1847C22.5941 11.33 22.1637 11.5718 21.8439 11.722C21.5241 11.8722 20.9624 12.077 20.5957 12.177C20.2291 12.2771 19.9134 12.3423 19.8943 12.3219C19.8753 12.3015 19.8024 11.4081 19.7324 10.3366C19.6625 9.26503 19.5008 7.82364 19.373 7.13342C19.2453 6.4432 18.9819 5.37166 18.7877 4.75222C18.5934 4.13279 18.2078 3.18756 17.9308 2.65179C17.6466 2.10195 17.1737 1.41248 16.8453 1.06883C16.5253 0.73395 16.0289 0.356422 15.7422 0.230002C15.4555 0.103474 15.0111 0 14.7548 0C14.4984 0 14.1086 0.0705701 13.8887 0.156834C13.6688 0.243099 13.3165 0.437058 13.1057 0.58794C12.8951 0.738821 12.5255 1.13096 12.2845 1.45935C12.0435 1.78774 11.8094 2.05649 11.7642 2.05649C11.7191 2.05649 11.4936 1.80084 11.2631 1.48825C11.0326 1.17566 10.6734 0.79348 10.4648 0.638702C10.2562 0.484033 9.91983 0.277085 9.71735 0.178698C9.51475 0.0804196 9.09998 0.00227296 8.79567 0.00508711C8.44444 0.00822596 8.04788 0.105097 7.71048 0.27005ZM14.3373 0.329688C14.138 0.368761 13.7914 0.507303 13.567 0.637512C13.3426 0.76772 12.9929 1.05184 12.7898 1.26885C12.5868 1.48587 12.3268 1.86037 12.2121 2.10087C12.0972 2.34148 12.0264 2.56 12.0547 2.58641C12.0829 2.61293 12.2226 2.535 12.365 2.41324C12.5074 2.29136 12.7373 2.13702 12.8758 2.07002C13.0144 2.00302 13.2998 1.94847 13.51 1.94869C13.7204 1.9489 14.055 2.04209 14.2538 2.15596C14.4526 2.26972 14.7482 2.52645 14.9108 2.72647C15.0734 2.9266 15.3643 3.40706 15.5572 3.79422C15.7503 4.18138 16.0281 4.95776 16.1746 5.51962C16.407 6.41116 16.4768 6.55057 16.7234 6.61508C17.0058 6.68911 17.0058 6.68911 16.7368 6.69983C16.5761 6.70632 16.487 6.7652 16.5155 6.84595C16.5488 6.94022 16.9361 6.99055 17.7935 7.01198C18.6149 7.03244 19.0237 7.00397 19.0237 6.92626C19.0237 6.86218 18.9429 6.44244 18.8441 5.99348C18.7452 5.5444 18.5067 4.75504 18.3139 4.23918C18.1211 3.72333 17.7769 2.96611 17.5489 2.55665C17.321 2.14708 16.8781 1.54864 16.5647 1.22675C16.2513 0.904964 15.8851 0.5861 15.7509 0.518344C15.6165 0.450479 15.3251 0.364323 15.1032 0.326765C14.8812 0.289316 14.5365 0.290614 14.3373 0.329688ZM7.71256 0.632533C7.4282 0.801814 7.01159 1.142 6.78685 1.38846C6.56211 1.63502 6.24558 2.06872 6.08368 2.35241C5.92167 2.63609 5.75274 2.99003 5.70835 3.13885C5.65554 3.31582 5.766 3.22209 6.02753 2.86826C6.24742 2.57061 6.58436 2.24179 6.77601 2.13767C6.96777 2.03354 7.31382 1.94825 7.54501 1.94825C7.77621 1.94825 8.1158 2.02131 8.29961 2.1105C8.48341 2.19969 8.76534 2.43456 8.92609 2.63241C9.08683 2.83016 9.39621 3.35381 9.61357 3.79606C9.83093 4.23821 10.1292 5.03201 10.2765 5.55988C10.4769 6.27857 10.6026 6.54191 10.7769 6.60837C10.9728 6.68294 10.9777 6.69799 10.8078 6.70383C10.6968 6.70751 10.606 6.7533 10.606 6.80536C10.606 6.85742 10.7682 6.93048 10.9664 6.96771C11.1646 7.00494 11.7389 7.03536 12.2425 7.03536C13.0596 7.03536 13.1522 7.0149 13.1014 6.84595C13.0701 6.74182 13.0091 6.43735 12.9659 6.16947C12.9227 5.90158 12.7318 5.2197 12.5416 4.65416C12.3515 4.08863 11.9643 3.20282 11.6813 2.68556C11.3982 2.16841 10.9564 1.52104 10.6993 1.24699C10.4423 0.972828 10.0328 0.653206 9.78942 0.536636C9.53031 0.412597 9.11531 0.324709 8.78829 0.324709C8.37248 0.324709 8.09747 0.403397 7.71256 0.632533ZM12.9497 2.32264C12.7484 2.4049 12.5001 2.59193 12.3979 2.73838C12.2233 2.98851 12.2301 3.04967 12.509 3.7453C12.6723 4.15259 12.9314 4.95062 13.0849 5.51864C13.2382 6.08656 13.4464 7.01339 13.5474 7.57806C13.6484 8.14272 13.7623 9.59612 13.8005 10.8077C13.8699 13.0107 13.8699 13.0107 15.1693 12.9719C15.884 12.9507 16.5118 12.8928 16.5643 12.8433C16.6168 12.7939 16.6532 12.1122 16.6449 11.3286C16.6367 10.5448 16.5686 9.41656 16.4937 8.82126C16.4187 8.22596 16.2295 7.13743 16.0731 6.40218C15.9169 5.66704 15.6351 4.69085 15.4469 4.2328C15.2587 3.77474 14.9485 3.20055 14.7576 2.9568C14.5666 2.71305 14.2341 2.43521 14.0187 2.3392C13.8031 2.2432 13.557 2.16667 13.4714 2.16895C13.3858 2.17133 13.1511 2.24049 12.9497 2.32264ZM3.39522 8.36558C3.07592 8.4972 2.5636 8.7443 2.25653 8.91488C1.94957 9.08546 1.49352 9.3987 1.24318 9.61106C0.992839 9.82342 0.687958 10.1811 0.565729 10.4061C0.443385 10.631 0.343411 11.0137 0.343411 11.2566C0.343411 11.4995 0.44546 11.8859 0.570111 12.1152C0.694762 12.3446 1.04185 12.7288 1.34142 12.9692C1.64088 13.2095 2.30427 13.5992 2.81555 13.8353C3.32672 14.0714 4.31805 14.4371 5.01833 14.6481C5.71849 14.859 6.80818 15.1274 7.43985 15.2445C8.07141 15.3617 8.95134 15.4867 9.39529 15.5223C9.83923 15.558 10.262 15.5504 10.3346 15.5054C10.4074 15.4605 10.516 14.9366 10.5762 14.3413C10.6364 13.746 10.6807 13.2513 10.6747 13.2418C10.6687 13.2325 10.1448 13.1682 9.5106 13.0992C8.87639 13.03 7.83859 12.8739 7.20439 12.7523C6.57018 12.6307 5.68805 12.4102 5.24411 12.2621C4.80016 12.1141 4.2258 11.8792 3.96774 11.74C3.70979 11.6008 3.33261 11.3276 3.12977 11.1329C2.92694 10.938 2.71097 10.6047 2.64997 10.3919C2.57744 10.1391 2.57951 9.86736 2.65573 9.60803C2.73495 9.33874 2.98275 9.03513 3.42601 8.66442C3.78531 8.36374 4.05606 8.11967 4.02758 8.12205C3.99898 8.12443 3.71451 8.23408 3.39522 8.36558ZM22.7795 8.63217C23.2515 8.92203 23.5467 9.195 23.6857 9.47003C23.8207 9.73715 23.8696 10.0074 23.8272 10.2527C23.7916 10.4587 23.627 10.794 23.4614 10.9978C23.2959 11.2015 22.9006 11.5075 22.583 11.6777C22.2653 11.848 21.5551 12.1204 21.0046 12.2831C20.4543 12.4458 19.9637 12.6136 19.9147 12.6562C19.8657 12.6987 19.7865 13.2292 19.7386 13.8351C19.6525 14.9261 19.6541 14.9366 19.9083 14.9366C20.0494 14.9366 20.5956 14.8098 21.1221 14.6548C21.6486 14.4998 22.534 14.1536 23.0896 13.8856C23.6452 13.6175 24.3609 13.1779 24.6799 12.9086C24.999 12.6393 25.3405 12.2729 25.4389 12.0944C25.5373 11.9159 25.621 11.5681 25.6249 11.3214C25.6289 11.0747 25.5397 10.6901 25.4268 10.4667C25.3139 10.2433 24.9901 9.84647 24.7074 9.58487C24.4246 9.32315 23.8475 8.94032 23.4247 8.73402C23.0019 8.52772 22.5263 8.3237 22.3677 8.28062C22.2092 8.23754 22.3945 8.39567 22.7795 8.63217ZM11.0146 10.093C10.9896 10.1675 10.9426 11.3486 10.9104 12.7178C10.8761 14.1649 10.7757 15.6584 10.6704 16.2848C10.5708 16.8774 10.3797 17.7541 10.2457 18.2331C10.1118 18.7119 9.82897 19.4488 9.61714 19.8703C9.37591 20.3507 9.03909 20.8041 8.71518 21.0844C8.43083 21.3305 8.06506 21.5631 7.90236 21.6014C7.73954 21.6397 7.42082 21.6384 7.19389 21.5984C6.91473 21.5493 6.57917 21.3419 6.15587 20.9571C5.74213 20.581 5.55475 20.4641 5.60226 20.612C5.6417 20.7349 5.85456 21.1614 6.07515 21.5596C6.29574 21.9579 6.73023 22.5324 7.04064 22.8363C7.35106 23.1403 7.78567 23.4598 8.00637 23.5464C8.22719 23.633 8.59272 23.7037 8.81873 23.7037C9.04474 23.7037 9.39667 23.638 9.60077 23.5578C9.80487 23.4775 10.136 23.282 10.3366 23.1232C10.5372 22.9643 10.8989 22.5551 11.1404 22.2138C11.3817 21.8724 11.7683 21.1791 11.9992 20.6731C12.2302 20.1671 12.5535 19.2661 12.7178 18.6708C12.882 18.0755 13.0948 17.15 13.1906 16.6143C13.2863 16.0785 13.418 15.0557 13.4833 14.3413C13.5484 13.6269 13.6017 12.5311 13.6017 11.906C13.6016 11.2809 13.5694 10.5869 13.5301 10.3636C13.4586 9.95774 13.4586 9.95774 12.2594 9.95774C11.401 9.95774 11.0471 9.99616 11.0146 10.093ZM16.9407 10.0389C16.9367 10.0835 16.939 10.5585 16.9458 11.0942C16.9527 11.63 16.9034 12.8476 16.836 13.8001C16.7688 14.7526 16.6311 15.9946 16.53 16.5602C16.429 17.1257 16.2191 18.0011 16.0637 18.5055C15.9083 19.0099 15.6156 19.7155 15.4133 20.0735C15.211 20.4315 14.8539 20.905 14.6195 21.1257C14.3572 21.3728 14.0341 21.555 13.7786 21.6001C13.4905 21.6507 13.1976 21.6112 12.8214 21.4707C12.5231 21.3595 12.2463 21.2541 12.2063 21.2368C12.1663 21.2194 12.1015 21.2834 12.0624 21.3789C12.0233 21.4745 12.0744 21.7034 12.1759 21.8877C12.2774 22.0718 12.6 22.4629 12.8929 22.7569C13.1858 23.0508 13.6192 23.3841 13.8562 23.4976C14.093 23.611 14.4985 23.7037 14.7572 23.7037C15.016 23.7037 15.4268 23.6084 15.6703 23.4918C15.9137 23.3753 16.3231 23.0556 16.5802 22.7815C16.8372 22.5074 17.2818 21.8573 17.5683 21.3368C17.8546 20.8164 18.2224 20.0067 18.3855 19.5376C18.5486 19.0685 18.7871 18.2012 18.9154 17.6103C19.0437 17.0193 19.2247 15.8716 19.3175 15.0597C19.4103 14.2479 19.4817 12.7679 19.4761 11.7707C19.4658 9.95774 19.4658 9.95774 18.207 9.95774C17.5146 9.95774 16.9448 9.99432 16.9407 10.0389ZM0.0320722 11.2566C0.0320722 11.584 0.0536353 11.718 0.0800414 11.5542C0.106447 11.3905 0.106447 11.1227 0.0800414 10.9589C0.0536353 10.7952 0.0320722 10.9292 0.0320722 11.2566ZM15.1608 13.2048C13.8924 13.2589 13.8924 13.2589 13.7887 14.4244C13.7317 15.0654 13.708 15.6114 13.736 15.6377C13.7639 15.664 14.3461 15.6434 15.0297 15.5921C15.7131 15.5408 16.3005 15.4723 16.3349 15.44C16.3693 15.4078 16.4376 14.9038 16.4867 14.3201C16.5358 13.7365 16.5429 13.2346 16.5026 13.2048C16.4622 13.1751 15.8584 13.1751 15.1608 13.2048ZM14.3825 15.8828C13.9543 15.9036 13.6041 15.9342 13.6041 15.9509C13.6041 15.9675 13.4985 16.5316 13.3695 17.2044C13.2404 17.8772 12.949 18.9671 12.7219 19.6264C12.3091 20.8252 12.3091 20.8252 12.6171 21.0738C12.8378 21.252 13.0694 21.3226 13.4336 21.3226C13.838 21.3226 14.0255 21.2537 14.3502 20.9862C14.5817 20.7953 14.9586 20.2683 15.2208 19.7685C15.4751 19.2838 15.8057 18.4245 15.9554 17.859C16.1052 17.2935 16.2632 16.5994 16.3067 16.3166C16.3858 15.8025 16.3858 15.8025 15.7732 15.8237C15.4364 15.8354 14.8106 15.8619 14.3825 15.8828Z" fill="#FF0000"/>
<path fill-rule="evenodd" clip-rule="evenodd" d="M14.3373 0.329688C14.138 0.368761 13.7914 0.507303 13.567 0.637512C13.3426 0.76772 12.9929 1.05184 12.7898 1.26885C12.5868 1.48587 12.3268 1.86037 12.2121 2.10087C12.0972 2.34148 12.0264 2.56 12.0547 2.58641C12.0829 2.61293 12.2226 2.535 12.365 2.41324C12.5074 2.29136 12.7373 2.13702 12.8758 2.07002C13.0144 2.00302 13.2998 1.94847 13.51 1.94869C13.7204 1.9489 14.055 2.04209 14.2538 2.15596C14.4526 2.26972 14.7482 2.52645 14.9108 2.72647C15.0734 2.9266 15.3643 3.40706 15.5572 3.79422C15.7503 4.18138 16.0281 4.95776 16.1746 5.51962C16.407 6.41116 16.3556 6.86261 16.6022 6.92712C17.4093 7.03536 17.4093 7.06371 17.9859 7.08948C19.1966 7.14359 19.139 7.25183 18.8848 6.14241C18.8258 5.82982 18.5984 5.06805 18.3794 4.44959C18.1606 3.83102 17.7909 2.9845 17.558 2.56844C17.325 2.15249 16.8781 1.54864 16.5647 1.22675C16.2513 0.904964 15.8851 0.5861 15.7509 0.518344C15.6165 0.450479 15.3251 0.364323 15.1032 0.326765C14.8812 0.289316 14.5365 0.290614 14.3373 0.329688ZM7.71256 0.632533C7.4282 0.801814 7.01159 1.142 6.78685 1.38846C6.56211 1.63502 6.24558 2.06872 6.08368 2.35241C5.92167 2.63609 5.75274 2.99003 5.70835 3.13885C5.65554 3.31582 5.766 3.22209 6.02753 2.86826C6.24742 2.57061 6.58436 2.24179 6.77601 2.13767C6.96777 2.03354 7.31382 1.94825 7.54501 1.94825C7.77621 1.94825 8.1158 2.02131 8.29961 2.1105C8.48341 2.19969 8.76534 2.43456 8.92609 2.63241C9.08683 2.83016 9.39621 3.35381 9.61357 3.79606C9.83093 4.23821 10.1291 5.03169 10.2762 5.55923C10.5068 6.38594 10.4907 6.71065 10.6637 6.92712C11.0096 6.98124 11.5296 7.05708 12.0474 7.08948C12.9122 7.14359 13.2241 7.22477 13.1428 6.71065C13.0981 6.42794 12.7346 5.21969 12.5435 4.65416C12.3523 4.08862 11.9643 3.20282 11.6813 2.68556C11.3982 2.16841 10.9564 1.52104 10.6993 1.24699C10.4423 0.972828 10.0328 0.653206 9.78942 0.536636C9.53031 0.412597 9.11531 0.324709 8.78829 0.324709C8.37248 0.324709 8.09747 0.403397 7.71256 0.632533ZM3.39522 8.36558C3.07592 8.4972 2.5636 8.7443 2.25653 8.91488C1.94957 9.08546 1.49352 9.3987 1.24318 9.61106C0.992839 9.82342 0.687958 10.1811 0.565729 10.4061C0.443385 10.631 0.343411 11.0137 0.343411 11.2566C0.343411 11.4995 0.44546 11.8859 0.570111 12.1152C0.694762 12.3446 1.04185 12.7288 1.34142 12.9692C1.64088 13.2095 2.30427 13.5992 2.81555 13.8353C3.32672 14.0714 4.31805 14.4371 5.01833 14.6481C5.71849 14.859 6.80818 15.1274 7.43985 15.2445C8.07141 15.3617 8.95134 15.4867 9.39529 15.5223C9.83923 15.558 10.262 15.5504 10.3346 15.5054C10.4074 15.4605 10.516 14.9366 10.5762 14.3413C10.6364 13.746 10.6807 13.2513 10.6747 13.2418C10.6687 13.2325 10.1448 13.1682 9.5106 13.0992C8.87639 13.03 7.83859 12.8739 7.20439 12.7523C6.57018 12.6307 5.68805 12.4102 5.24411 12.2621C4.80016 12.1141 4.2258 11.8792 3.96774 11.74C3.70979 11.6008 3.33261 11.3276 3.12977 11.1329C2.92694 10.938 2.71097 10.6047 2.64997 10.3919C2.57744 10.1391 2.57951 9.86736 2.65573 9.60803C2.73495 9.33874 2.98275 9.03513 3.42601 8.66442C3.78531 8.36374 4.05606 8.11967 4.02758 8.12205C3.99898 8.12443 3.71451 8.23408 3.39522 8.36558ZM22.7795 8.63217C23.2515 8.92203 23.5467 9.195 23.6857 9.47003C23.8207 9.73715 23.8696 10.0074 23.8272 10.2527C23.7916 10.4587 23.627 10.794 23.4614 10.9978C23.2959 11.2015 22.9006 11.5075 22.583 11.6777C22.2653 11.848 21.5551 12.1204 21.0046 12.2831C20.4543 12.4458 19.9637 12.6136 19.9147 12.6562C19.8657 12.6987 19.7865 13.2292 19.7386 13.8351C19.6525 14.9261 19.6541 14.9366 19.9083 14.9366C20.0494 14.9366 20.5956 14.8098 21.1221 14.6548C21.6486 14.4998 22.534 14.1536 23.0896 13.8856C23.6452 13.6175 24.3609 13.1779 24.6799 12.9086C24.999 12.6393 25.3405 12.2729 25.4389 12.0944C25.5373 11.9159 25.621 11.5681 25.6249 11.3214C25.6289 11.0747 25.5397 10.6901 25.4268 10.4667C25.3139 10.2433 24.9901 9.84647 24.7074 9.58487C24.4246 9.32315 23.8475 8.94032 23.4247 8.73402C23.0019 8.52772 22.5263 8.3237 22.3677 8.28062C22.2092 8.23754 22.3945 8.39567 22.7795 8.63217ZM10.8078 12.7523C10.7706 14.127 10.6773 15.6579 10.5761 16.2595C10.4765 16.8521 10.3797 17.7541 10.2457 18.2331C10.1118 18.7119 9.82897 19.4488 9.61714 19.8703C9.37591 20.3507 9.03909 20.8041 8.71518 21.0844C8.43083 21.3305 8.06506 21.5631 7.90236 21.6014C7.73954 21.6397 7.42082 21.6384 7.19389 21.5984C6.91473 21.5493 6.57917 21.3419 6.15587 20.9571C5.74213 20.581 5.55475 20.4641 5.60226 20.612C5.6417 20.7349 5.85456 21.1614 6.07515 21.5596C6.29574 21.9579 6.73023 22.5324 7.04064 22.8363C7.35106 23.1403 7.78567 23.4598 8.00637 23.5464C8.22719 23.633 8.59272 23.7037 8.81873 23.7037C9.04474 23.7037 9.39667 23.638 9.60077 23.5578C9.80487 23.4775 10.136 23.282 10.3366 23.1232C10.5372 22.9643 10.8989 22.5551 11.1404 22.2138C11.3817 21.8724 11.7683 21.1791 11.9992 20.6731C12.2302 20.1671 12.5535 19.2661 12.7178 18.6708C12.882 18.0755 13.0948 17.15 13.1906 16.6143C13.2863 16.0785 13.418 15.0557 13.4833 14.3413C13.5484 13.6269 13.6022 12.4985 13.6029 11.8337C13.6035 11.1688 13.5849 10.4307 13.5464 10.3366C13.5464 9.73239 12.8984 9.8495 11.8744 9.8495C10.6348 9.8495 10.8991 9.85697 10.8078 12.7523ZM16.8616 11.3214C16.8616 11.9438 16.7788 12.9656 16.7175 13.8856C16.654 14.7786 16.6311 15.9946 16.53 16.5602C16.429 17.1257 16.2191 18.0011 16.0637 18.5055C15.9083 19.0099 15.6156 19.7155 15.4133 20.0735C15.211 20.4315 14.8539 20.905 14.6195 21.1257C14.3572 21.3728 14.0341 21.555 13.7786 21.6001C13.4905 21.6507 13.1976 21.6112 12.8214 21.4707C12.5231 21.3595 12.2463 21.2541 12.2063 21.2368C12.1663 21.2194 12.1015 21.2834 12.0624 21.3789C12.0233 21.4745 12.0744 21.7034 12.1759 21.8877C12.2774 22.0718 12.6 22.4629 12.8929 22.7569C13.1858 23.0508 13.6192 23.3841 13.8562 23.4976C14.093 23.611 14.4985 23.7037 14.7572 23.7037C15.016 23.7037 15.4268 23.6084 15.6703 23.4918C15.9137 23.3753 16.3231 23.0556 16.5802 22.7815C16.8372 22.5074 17.2818 21.8573 17.5683 21.3368C17.8546 20.8164 18.2224 20.0067 18.3855 19.5376C18.5486 19.0685 18.7871 18.2012 18.9154 17.6103C19.0437 17.0193 19.3163 16.0564 19.408 15.2445C19.5967 14.6093 19.6476 13.0023 19.6483 12.0944C19.7649 10.1191 19.3773 9.69956 18.1012 9.79538C16.6598 9.90362 16.8616 9.45129 16.8616 11.3214ZM15.1608 13.2048C13.8924 13.2589 13.8924 13.2589 13.7887 14.4244C13.7317 15.0654 13.708 15.6114 13.736 15.6377C13.7639 15.664 14.3461 15.6434 15.0297 15.5921C15.7131 15.5408 16.3005 15.4723 16.3349 15.44C16.3693 15.4078 16.4376 14.9038 16.4867 14.3201C16.5358 13.7365 16.5429 13.2346 16.5026 13.2048C16.4622 13.1751 15.8584 13.1751 15.1608 13.2048Z" fill="#FF0000"/>
</svg>
